<svg width="19" height="27" viewBox="0 0 19 27" fill="none" xmlns="http://www.w3.org/2000/svg">
<path d="M18.5 25C18.775 25 19 25.224 19 25.5C19 25.776 19 27 19 27H0C0 27 0 25.776 0 25.5C0 25.224 0.224 25 0.5 25H2.17C2.253 18.342 6.602 16.196 6.602 13.505C6.602 10.8 2.173 10.62 2.131 2H0.5C0.224 2 0 1.776 0 1.5C0 1.224 0 0 0 0H19C19 0 19 1.224 19 1.5C19 1.776 18.775 2 18.5 2H16.97C16.928 10.62 12.499 10.8 12.499 13.505C12.499 16.196 16.849 18.342 16.932 25H18.5ZM11.111 13.505C11.111 10.789 15.541 10.62 15.582 2H3.519C3.56 10.62 7.99 10.789 7.99 13.505C7.99 16.116 3.639 18.317 3.557 25H4.315C4.493 24.407 5.084 23.694 6.105 23.166L7.432 22.489C8.266 22.058 8.766 21.767 8.932 21.617C9.098 21.467 9.286 21.131 9.496 20.609C9.717 21.13 9.906 21.466 10.066 21.617C10.226 21.768 10.72 22.058 11.55 22.489L12.87 23.166C13.885 23.694 14.474 24.407 14.649 25H15.543C15.461 18.317 11.111 16.116 11.111 13.505ZM10.07 12.037C9.95 12.273 9.849 12.722 9.769 13.384C9.749 13.584 9.705 13.885 9.634 14.286C9.564 13.885 9.519 13.584 9.499 13.384C9.418 12.722 9.317 12.274 9.196 12.037C9.075 11.802 8.734 11.379 8.171 10.766L6.92 9.398C6.065 8.476 5.517 7.814 5.276 7.414C6.76 8.359 8.209 8.832 9.623 8.832C11.037 8.832 12.491 8.359 13.985 7.414C13.735 7.814 13.185 8.476 12.336 9.398L11.09 10.766C10.53 11.379 10.189 11.802 10.07 12.037Z" fill="black"/>
</svg>
