<svg width="16" height="17" viewBox="0 0 16 17" fill="none" xmlns="http://www.w3.org/2000/svg">
<path d="M10.9667 9.18516L10.9005 9.12152C10.6244 8.85606 10.1849 8.8664 9.92149 9.14455L9.09431 10.0182L3.2107 16.2322C2.81591 16.6491 2.15187 16.6487 1.75758 16.2313L0.649317 15.058C0.284985 14.6723 0.285312 14.0692 0.650061 13.6839L6.53188 7.47039L7.39457 6.55905C7.46387 6.48585 7.5217 6.40259 7.5661 6.31209L7.57025 6.30363C7.68872 6.06219 7.70494 5.7832 7.61525 5.52965L7.5529 5.35339C7.51727 5.25266 7.46574 5.1583 7.40025 5.07389L6.4338 3.8282C6.38572 3.76623 6.33051 3.71013 6.26932 3.66106L4.74303 2.43707L2.76185 1.1527C2.69246 1.10771 2.72432 1 2.80702 1L6.23999 1.28097C6.32065 1.28757 6.40021 1.30394 6.47693 1.32972L9.5635 2.36683C9.73436 2.42424 9.88653 2.52676 10.0039 2.66355L12.479 5.54807C12.5857 5.67237 12.5981 5.85196 12.5095 5.98972C12.4165 6.13426 12.4352 6.32372 12.5545 6.44738L12.9006 6.80609C13.0875 6.99972 13.345 7.10909 13.614 7.10909C13.8831 7.10909 14.1406 7.21846 14.3275 7.41209L15.2985 8.4184C15.6847 8.81873 15.67 9.45735 15.2658 9.83949L13.6247 11.3907C13.2301 11.7637 12.61 11.7537 12.2277 11.3681L11.2249 10.3569C11.0734 10.2042 11.0248 9.97709 11.1005 9.77567C11.1779 9.56978 11.1253 9.33759 10.9667 9.18516Z" fill="#FF0303"/>
<path d="M6.53188 7.47039L7.39457 6.55905C7.46387 6.48585 7.5217 6.40259 7.5661 6.31209L7.57025 6.30363C7.68872 6.06219 7.70494 5.7832 7.61525 5.52965L7.5529 5.35339C7.51727 5.25266 7.46574 5.1583 7.40025 5.07389L6.4338 3.8282C6.38572 3.76623 6.33051 3.71013 6.26932 3.66106L4.74303 2.43707L2.76185 1.1527C2.69246 1.10771 2.72432 1 2.80702 1V1L6.23999 1.28097C6.32065 1.28757 6.40021 1.30394 6.47693 1.32972L9.5635 2.36683C9.73436 2.42424 9.88653 2.52676 10.0039 2.66355L12.479 5.54807C12.5857 5.67237 12.5981 5.85196 12.5095 5.98972V5.98972C12.4165 6.13426 12.4352 6.32372 12.5545 6.44738L12.9006 6.80609C13.0875 6.99972 13.345 7.10909 13.614 7.10909V7.10909C13.8831 7.10909 14.1406 7.21846 14.3275 7.41209L15.2985 8.4184C15.6847 8.81873 15.67 9.45734 15.2658 9.83949L13.6247 11.3907C13.2301 11.7637 12.61 11.7537 12.2277 11.3681L11.2249 10.3569C11.0734 10.2042 11.0248 9.97708 11.1005 9.77567V9.77567C11.1779 9.56978 11.1253 9.33759 10.9667 9.18516L10.9005 9.12152C10.6244 8.85606 10.1849 8.8664 9.92149 9.14455L9.09431 10.0182M6.53188 7.47039L0.650061 13.6839C0.285312 14.0692 0.284985 14.6723 0.649317 15.058L1.75758 16.2313C2.15187 16.6487 2.81591 16.6491 3.2107 16.2322L9.09431 10.0182M6.53188 7.47039L9.09431 10.0182" stroke="black" stroke-width="0.5"/>
</svg>
