<svg width="26" height="23" viewBox="0 0 26 23" fill="none" xmlns="http://www.w3.org/2000/svg">
<path d="M1 7V4C1 2.89543 1.89543 2 3 2H6.2987M1 7V20C1 21.1046 1.89543 22 3 22H23C24.1046 22 25 21.1046 25 20V7M1 7H25M25 7V4C25 2.89543 24.1046 2 23 2H18.4545M18.4545 2V0V4M18.4545 2H6.2987M6.2987 2V0M6.2987 2V4M4.42857 11H8.42857M4.42857 14.0556H8.42857M4.42857 17.1111H8.42857M11.2857 11H14.7143M18.1429 11H21.5714M11.2857 14.0556H14.7143M18.1429 14.0556H21.5714M11.2857 17.1111H14.7143M18.1429 17.1111H21.5714" stroke="black"/>
</svg>
