<svg width="18" height="21" viewBox="0 0 18 21" fill="none" xmlns="http://www.w3.org/2000/svg">
<path d="M4.58442 13.375H13.6429C13.7809 13.375 13.8929 13.4869 13.8929 13.625V15.5H4.33442V13.625C4.33442 13.4869 4.44635 13.375 4.58442 13.375ZM4.33442 16H13.8929V20.75H4.33442V16ZM14.3929 20.75V15.75V13.625C14.3929 13.2108 14.0571 12.875 13.6429 12.875H4.58442C4.17021 12.875 3.83442 13.2108 3.83442 13.625V15.75V20.75H0.5C0.361929 20.75 0.25 20.6381 0.25 20.5V0.500001C0.25 0.361929 0.361929 0.25 0.5 0.25H2.32748L2.43813 4.76836C2.4481 5.1753 2.78084 5.5 3.18791 5.5H12.4733C12.8947 5.5 13.2334 5.15291 13.2231 4.73164L13.1206 0.548126L17.6609 4.36504C17.7174 4.41254 17.75 4.48258 17.75 4.5564V20.5C17.75 20.6381 17.6381 20.75 17.5 20.75H14.3929ZM2.93798 4.75612L2.82763 0.25H6.82143V3C6.82143 3.41421 7.15722 3.75 7.57143 3.75H10.4286C10.8428 3.75 11.1786 3.41421 11.1786 3V0.25H12.6132L12.7232 4.74388C12.7267 4.88431 12.6138 5 12.4733 5H3.18791C3.05222 5 2.9413 4.89177 2.93798 4.75612ZM7.32143 0.25H10.6786V3C10.6786 3.13807 10.5666 3.25 10.4286 3.25H7.57143C7.43336 3.25 7.32143 3.13807 7.32143 3V0.25Z" fill="#E8E8E8" stroke="#6F6F6F" stroke-width="0.5"/>
</svg>
